<mxfile host="app.diagrams.net" modified="2022-03-10T19:38:48.165Z" agent="5.0 (Macintosh; Intel Mac OS X 10_15_7) AppleWebKit/537.36 (KHTML, like Gecko) Chrome/98.0.4758.109 Safari/537.36" etag="gA1G8sfvtEDbjrc1CJZX" version="17.1.1" type="github">
  <diagram id="_dFQV9yzRKjEPI2oUBaA" name="Page-1">
    <mxGraphModel dx="901" dy="615" grid="1" gridSize="10" guides="1" tooltips="1" connect="1" arrows="1" fold="1" page="1" pageScale="1" pageWidth="827" pageHeight="1169" math="0" shadow="0">
      <root>
        <mxCell id="0" />
        <mxCell id="1" parent="0" />
        <mxCell id="8WXEVEu52d8ca_O_jeVY-1" value="S" style="ellipse;whiteSpace=wrap;html=1;aspect=fixed;fillColor=#d5e8d4;strokeColor=#82b366;labelBackgroundColor=none;" vertex="1" parent="1">
          <mxGeometry x="120" y="160" width="40" height="40" as="geometry" />
        </mxCell>
        <mxCell id="8WXEVEu52d8ca_O_jeVY-2" value="B" style="ellipse;whiteSpace=wrap;html=1;aspect=fixed;fillColor=#d5e8d4;strokeColor=#82b366;labelBackgroundColor=none;" vertex="1" parent="1">
          <mxGeometry x="240" y="80" width="40" height="40" as="geometry" />
        </mxCell>
        <mxCell id="8WXEVEu52d8ca_O_jeVY-3" value="A" style="ellipse;whiteSpace=wrap;html=1;aspect=fixed;fillColor=#d5e8d4;strokeColor=#82b366;labelBackgroundColor=none;" vertex="1" parent="1">
          <mxGeometry x="240" y="240" width="40" height="40" as="geometry" />
        </mxCell>
        <mxCell id="8WXEVEu52d8ca_O_jeVY-4" value="C" style="ellipse;whiteSpace=wrap;html=1;aspect=fixed;fillColor=#d5e8d4;strokeColor=#82b366;labelBackgroundColor=none;" vertex="1" parent="1">
          <mxGeometry x="400" y="80" width="40" height="40" as="geometry" />
        </mxCell>
        <mxCell id="8WXEVEu52d8ca_O_jeVY-5" value="D" style="ellipse;whiteSpace=wrap;html=1;aspect=fixed;fillColor=#d5e8d4;strokeColor=#82b366;labelBackgroundColor=none;" vertex="1" parent="1">
          <mxGeometry x="400" y="240" width="40" height="40" as="geometry" />
        </mxCell>
        <mxCell id="8WXEVEu52d8ca_O_jeVY-6" value="7" style="endArrow=classic;html=1;rounded=0;entryX=0.079;entryY=0.766;entryDx=0;entryDy=0;entryPerimeter=0;exitX=0.908;exitY=0.194;exitDx=0;exitDy=0;exitPerimeter=0;labelBackgroundColor=none;" edge="1" parent="1" source="8WXEVEu52d8ca_O_jeVY-1" target="8WXEVEu52d8ca_O_jeVY-2">
          <mxGeometry width="50" height="50" relative="1" as="geometry">
            <mxPoint x="390" y="300" as="sourcePoint" />
            <mxPoint x="440" y="250" as="targetPoint" />
          </mxGeometry>
        </mxCell>
        <mxCell id="8WXEVEu52d8ca_O_jeVY-7" value="" style="endArrow=classic;html=1;rounded=0;entryX=0.078;entryY=0.188;entryDx=0;entryDy=0;entryPerimeter=0;exitX=1;exitY=1;exitDx=0;exitDy=0;labelBackgroundColor=none;" edge="1" parent="1" source="8WXEVEu52d8ca_O_jeVY-1" target="8WXEVEu52d8ca_O_jeVY-3">
          <mxGeometry width="50" height="50" relative="1" as="geometry">
            <mxPoint x="166.31999999999994" y="177.76000000000005" as="sourcePoint" />
            <mxPoint x="253.15999999999997" y="120.63999999999999" as="targetPoint" />
          </mxGeometry>
        </mxCell>
        <mxCell id="8WXEVEu52d8ca_O_jeVY-15" value="2" style="edgeLabel;html=1;align=center;verticalAlign=middle;resizable=0;points=[];labelBackgroundColor=none;" vertex="1" connectable="0" parent="8WXEVEu52d8ca_O_jeVY-7">
          <mxGeometry x="-0.0651" relative="1" as="geometry">
            <mxPoint as="offset" />
          </mxGeometry>
        </mxCell>
        <mxCell id="8WXEVEu52d8ca_O_jeVY-8" value="" style="endArrow=classic;html=1;rounded=0;exitX=0.65;exitY=0.988;exitDx=0;exitDy=0;exitPerimeter=0;entryX=0.621;entryY=-0.005;entryDx=0;entryDy=0;entryPerimeter=0;labelBackgroundColor=none;" edge="1" parent="1" source="8WXEVEu52d8ca_O_jeVY-2" target="8WXEVEu52d8ca_O_jeVY-3">
          <mxGeometry width="50" height="50" relative="1" as="geometry">
            <mxPoint x="320" y="190" as="sourcePoint" />
            <mxPoint x="370" y="140" as="targetPoint" />
          </mxGeometry>
        </mxCell>
        <mxCell id="8WXEVEu52d8ca_O_jeVY-17" value="2" style="edgeLabel;html=1;align=center;verticalAlign=middle;resizable=0;points=[];labelBackgroundColor=none;" vertex="1" connectable="0" parent="8WXEVEu52d8ca_O_jeVY-8">
          <mxGeometry x="0.0078" y="-1" relative="1" as="geometry">
            <mxPoint as="offset" />
          </mxGeometry>
        </mxCell>
        <mxCell id="8WXEVEu52d8ca_O_jeVY-9" value="" style="endArrow=classic;html=1;rounded=0;entryX=0.365;entryY=0.994;entryDx=0;entryDy=0;entryPerimeter=0;exitX=0.338;exitY=0.024;exitDx=0;exitDy=0;exitPerimeter=0;labelBackgroundColor=none;" edge="1" parent="1" source="8WXEVEu52d8ca_O_jeVY-3" target="8WXEVEu52d8ca_O_jeVY-2">
          <mxGeometry width="50" height="50" relative="1" as="geometry">
            <mxPoint x="270" y="190" as="sourcePoint" />
            <mxPoint x="320" y="140" as="targetPoint" />
          </mxGeometry>
        </mxCell>
        <mxCell id="8WXEVEu52d8ca_O_jeVY-16" value="3" style="edgeLabel;html=1;align=center;verticalAlign=middle;resizable=0;points=[];labelBackgroundColor=none;" vertex="1" connectable="0" parent="8WXEVEu52d8ca_O_jeVY-9">
          <mxGeometry x="0.0138" y="1" relative="1" as="geometry">
            <mxPoint as="offset" />
          </mxGeometry>
        </mxCell>
        <mxCell id="8WXEVEu52d8ca_O_jeVY-10" value="" style="endArrow=classic;html=1;rounded=0;entryX=0;entryY=0.5;entryDx=0;entryDy=0;exitX=1;exitY=0.5;exitDx=0;exitDy=0;labelBackgroundColor=none;" edge="1" parent="1" source="8WXEVEu52d8ca_O_jeVY-2" target="8WXEVEu52d8ca_O_jeVY-4">
          <mxGeometry width="50" height="50" relative="1" as="geometry">
            <mxPoint x="290" y="190" as="sourcePoint" />
            <mxPoint x="340" y="140" as="targetPoint" />
          </mxGeometry>
        </mxCell>
        <mxCell id="8WXEVEu52d8ca_O_jeVY-18" value="1" style="edgeLabel;html=1;align=center;verticalAlign=middle;resizable=0;points=[];labelBackgroundColor=none;" vertex="1" connectable="0" parent="8WXEVEu52d8ca_O_jeVY-10">
          <mxGeometry x="-0.3278" relative="1" as="geometry">
            <mxPoint as="offset" />
          </mxGeometry>
        </mxCell>
        <mxCell id="8WXEVEu52d8ca_O_jeVY-11" value="" style="endArrow=classic;html=1;rounded=0;entryX=0;entryY=0.5;entryDx=0;entryDy=0;exitX=1;exitY=0.5;exitDx=0;exitDy=0;labelBackgroundColor=none;" edge="1" parent="1">
          <mxGeometry width="50" height="50" relative="1" as="geometry">
            <mxPoint x="280" y="259.8" as="sourcePoint" />
            <mxPoint x="400" y="259.8" as="targetPoint" />
          </mxGeometry>
        </mxCell>
        <mxCell id="8WXEVEu52d8ca_O_jeVY-19" value="5" style="edgeLabel;html=1;align=center;verticalAlign=middle;resizable=0;points=[];labelBackgroundColor=none;" vertex="1" connectable="0" parent="8WXEVEu52d8ca_O_jeVY-11">
          <mxGeometry x="-0.2975" relative="1" as="geometry">
            <mxPoint as="offset" />
          </mxGeometry>
        </mxCell>
        <mxCell id="8WXEVEu52d8ca_O_jeVY-12" value="" style="endArrow=classic;html=1;rounded=0;exitX=1;exitY=0;exitDx=0;exitDy=0;entryX=0;entryY=1;entryDx=0;entryDy=0;labelBackgroundColor=none;" edge="1" parent="1" source="8WXEVEu52d8ca_O_jeVY-3" target="8WXEVEu52d8ca_O_jeVY-4">
          <mxGeometry width="50" height="50" relative="1" as="geometry">
            <mxPoint x="290" y="190" as="sourcePoint" />
            <mxPoint x="340" y="140" as="targetPoint" />
          </mxGeometry>
        </mxCell>
        <mxCell id="8WXEVEu52d8ca_O_jeVY-20" value="8" style="edgeLabel;html=1;align=center;verticalAlign=middle;resizable=0;points=[];labelBackgroundColor=none;" vertex="1" connectable="0" parent="8WXEVEu52d8ca_O_jeVY-12">
          <mxGeometry x="0.0798" y="1" relative="1" as="geometry">
            <mxPoint as="offset" />
          </mxGeometry>
        </mxCell>
        <mxCell id="8WXEVEu52d8ca_O_jeVY-13" value="" style="endArrow=classic;html=1;rounded=0;exitX=0.65;exitY=0.988;exitDx=0;exitDy=0;exitPerimeter=0;entryX=0.621;entryY=-0.005;entryDx=0;entryDy=0;entryPerimeter=0;labelBackgroundColor=none;" edge="1" parent="1">
          <mxGeometry width="50" height="50" relative="1" as="geometry">
            <mxPoint x="413.15999999999997" y="119.71999999999998" as="sourcePoint" />
            <mxPoint x="412" y="240.00000000000006" as="targetPoint" />
          </mxGeometry>
        </mxCell>
        <mxCell id="8WXEVEu52d8ca_O_jeVY-21" value="4" style="edgeLabel;html=1;align=center;verticalAlign=middle;resizable=0;points=[];labelBackgroundColor=none;" vertex="1" connectable="0" parent="8WXEVEu52d8ca_O_jeVY-13">
          <mxGeometry x="0.0547" relative="1" as="geometry">
            <mxPoint as="offset" />
          </mxGeometry>
        </mxCell>
        <mxCell id="8WXEVEu52d8ca_O_jeVY-14" value="" style="endArrow=classic;html=1;rounded=0;entryX=0.365;entryY=0.994;entryDx=0;entryDy=0;entryPerimeter=0;exitX=0.338;exitY=0.024;exitDx=0;exitDy=0;exitPerimeter=0;labelBackgroundColor=none;" edge="1" parent="1">
          <mxGeometry width="50" height="50" relative="1" as="geometry">
            <mxPoint x="420" y="240.00000000000009" as="sourcePoint" />
            <mxPoint x="421.0799999999999" y="118.79999999999998" as="targetPoint" />
          </mxGeometry>
        </mxCell>
        <mxCell id="8WXEVEu52d8ca_O_jeVY-22" value="5" style="edgeLabel;html=1;align=center;verticalAlign=middle;resizable=0;points=[];labelBackgroundColor=none;" vertex="1" connectable="0" parent="8WXEVEu52d8ca_O_jeVY-14">
          <mxGeometry x="0.218" y="1" relative="1" as="geometry">
            <mxPoint as="offset" />
          </mxGeometry>
        </mxCell>
        <mxCell id="8WXEVEu52d8ca_O_jeVY-24" value="&lt;font style=&quot;font-size: 17px&quot;&gt;Step 0: Initialization.&lt;/font&gt;" style="text;html=1;strokeColor=none;fillColor=none;align=center;verticalAlign=middle;whiteSpace=wrap;rounded=0;labelBackgroundColor=none;" vertex="1" parent="1">
          <mxGeometry x="135" y="310" width="250" height="30" as="geometry" />
        </mxCell>
        <mxCell id="8WXEVEu52d8ca_O_jeVY-80" value="" style="shape=table;html=1;whiteSpace=wrap;startSize=0;container=1;collapsible=0;childLayout=tableLayout;labelBackgroundColor=none;labelBorderColor=none;fontSize=17;fontColor=default;strokeColor=default;fillColor=none;" vertex="1" parent="1">
          <mxGeometry x="530" y="120" width="360" height="160" as="geometry" />
        </mxCell>
        <mxCell id="8WXEVEu52d8ca_O_jeVY-81" value="" style="shape=tableRow;horizontal=0;startSize=0;swimlaneHead=0;swimlaneBody=0;top=0;left=0;bottom=0;right=0;collapsible=0;dropTarget=0;fillColor=none;points=[[0,0.5],[1,0.5]];portConstraint=eastwest;labelBackgroundColor=none;labelBorderColor=none;fontSize=17;fontColor=default;strokeColor=default;" vertex="1" parent="8WXEVEu52d8ca_O_jeVY-80">
          <mxGeometry width="360" height="40" as="geometry" />
        </mxCell>
        <mxCell id="8WXEVEu52d8ca_O_jeVY-82" value="V " style="shape=partialRectangle;html=1;whiteSpace=wrap;connectable=0;fillColor=none;top=0;left=0;bottom=0;right=0;overflow=hidden;labelBackgroundColor=none;labelBorderColor=none;fontSize=17;fontColor=default;strokeColor=default;" vertex="1" parent="8WXEVEu52d8ca_O_jeVY-81">
          <mxGeometry width="60" height="40" as="geometry">
            <mxRectangle width="60" height="40" as="alternateBounds" />
          </mxGeometry>
        </mxCell>
        <mxCell id="8WXEVEu52d8ca_O_jeVY-83" value="S" style="shape=partialRectangle;html=1;whiteSpace=wrap;connectable=0;fillColor=none;top=0;left=0;bottom=0;right=0;overflow=hidden;labelBackgroundColor=none;labelBorderColor=none;fontSize=17;fontColor=default;strokeColor=default;" vertex="1" parent="8WXEVEu52d8ca_O_jeVY-81">
          <mxGeometry x="60" width="60" height="40" as="geometry">
            <mxRectangle width="60" height="40" as="alternateBounds" />
          </mxGeometry>
        </mxCell>
        <mxCell id="8WXEVEu52d8ca_O_jeVY-84" value="A" style="shape=partialRectangle;html=1;whiteSpace=wrap;connectable=0;fillColor=none;top=0;left=0;bottom=0;right=0;overflow=hidden;labelBackgroundColor=none;labelBorderColor=none;fontSize=17;fontColor=default;strokeColor=default;" vertex="1" parent="8WXEVEu52d8ca_O_jeVY-81">
          <mxGeometry x="120" width="60" height="40" as="geometry">
            <mxRectangle width="60" height="40" as="alternateBounds" />
          </mxGeometry>
        </mxCell>
        <mxCell id="8WXEVEu52d8ca_O_jeVY-93" value="B" style="shape=partialRectangle;html=1;whiteSpace=wrap;connectable=0;fillColor=none;top=0;left=0;bottom=0;right=0;overflow=hidden;labelBackgroundColor=none;labelBorderColor=none;fontSize=17;fontColor=default;strokeColor=default;" vertex="1" parent="8WXEVEu52d8ca_O_jeVY-81">
          <mxGeometry x="180" width="60" height="40" as="geometry">
            <mxRectangle width="60" height="40" as="alternateBounds" />
          </mxGeometry>
        </mxCell>
        <mxCell id="8WXEVEu52d8ca_O_jeVY-96" value="C" style="shape=partialRectangle;html=1;whiteSpace=wrap;connectable=0;fillColor=none;top=0;left=0;bottom=0;right=0;overflow=hidden;labelBackgroundColor=none;labelBorderColor=none;fontSize=17;fontColor=default;strokeColor=default;" vertex="1" parent="8WXEVEu52d8ca_O_jeVY-81">
          <mxGeometry x="240" width="60" height="40" as="geometry">
            <mxRectangle width="60" height="40" as="alternateBounds" />
          </mxGeometry>
        </mxCell>
        <mxCell id="8WXEVEu52d8ca_O_jeVY-99" value="D" style="shape=partialRectangle;html=1;whiteSpace=wrap;connectable=0;fillColor=none;top=0;left=0;bottom=0;right=0;overflow=hidden;labelBackgroundColor=none;labelBorderColor=none;fontSize=17;fontColor=default;strokeColor=default;" vertex="1" parent="8WXEVEu52d8ca_O_jeVY-81">
          <mxGeometry x="300" width="60" height="40" as="geometry">
            <mxRectangle width="60" height="40" as="alternateBounds" />
          </mxGeometry>
        </mxCell>
        <mxCell id="8WXEVEu52d8ca_O_jeVY-85" value="" style="shape=tableRow;horizontal=0;startSize=0;swimlaneHead=0;swimlaneBody=0;top=0;left=0;bottom=0;right=0;collapsible=0;dropTarget=0;fillColor=none;points=[[0,0.5],[1,0.5]];portConstraint=eastwest;labelBackgroundColor=none;labelBorderColor=none;fontSize=17;fontColor=default;strokeColor=default;" vertex="1" parent="8WXEVEu52d8ca_O_jeVY-80">
          <mxGeometry y="40" width="360" height="40" as="geometry" />
        </mxCell>
        <mxCell id="8WXEVEu52d8ca_O_jeVY-86" value="dist[V]" style="shape=partialRectangle;html=1;whiteSpace=wrap;connectable=0;fillColor=none;top=0;left=0;bottom=0;right=0;overflow=hidden;labelBackgroundColor=none;labelBorderColor=none;fontSize=17;fontColor=default;strokeColor=default;" vertex="1" parent="8WXEVEu52d8ca_O_jeVY-85">
          <mxGeometry width="60" height="40" as="geometry">
            <mxRectangle width="60" height="40" as="alternateBounds" />
          </mxGeometry>
        </mxCell>
        <mxCell id="8WXEVEu52d8ca_O_jeVY-87" value="0" style="shape=partialRectangle;html=1;whiteSpace=wrap;connectable=0;fillColor=none;top=0;left=0;bottom=0;right=0;overflow=hidden;labelBackgroundColor=none;labelBorderColor=none;fontSize=17;fontColor=default;strokeColor=default;" vertex="1" parent="8WXEVEu52d8ca_O_jeVY-85">
          <mxGeometry x="60" width="60" height="40" as="geometry">
            <mxRectangle width="60" height="40" as="alternateBounds" />
          </mxGeometry>
        </mxCell>
        <mxCell id="8WXEVEu52d8ca_O_jeVY-88" value="INF" style="shape=partialRectangle;html=1;whiteSpace=wrap;connectable=0;fillColor=none;top=0;left=0;bottom=0;right=0;overflow=hidden;labelBackgroundColor=none;labelBorderColor=none;fontSize=17;fontColor=default;strokeColor=default;" vertex="1" parent="8WXEVEu52d8ca_O_jeVY-85">
          <mxGeometry x="120" width="60" height="40" as="geometry">
            <mxRectangle width="60" height="40" as="alternateBounds" />
          </mxGeometry>
        </mxCell>
        <mxCell id="8WXEVEu52d8ca_O_jeVY-94" value="INF" style="shape=partialRectangle;html=1;whiteSpace=wrap;connectable=0;fillColor=none;top=0;left=0;bottom=0;right=0;overflow=hidden;labelBackgroundColor=none;labelBorderColor=none;fontSize=17;fontColor=default;strokeColor=default;" vertex="1" parent="8WXEVEu52d8ca_O_jeVY-85">
          <mxGeometry x="180" width="60" height="40" as="geometry">
            <mxRectangle width="60" height="40" as="alternateBounds" />
          </mxGeometry>
        </mxCell>
        <mxCell id="8WXEVEu52d8ca_O_jeVY-97" value="INF" style="shape=partialRectangle;html=1;whiteSpace=wrap;connectable=0;fillColor=none;top=0;left=0;bottom=0;right=0;overflow=hidden;labelBackgroundColor=none;labelBorderColor=none;fontSize=17;fontColor=default;strokeColor=default;" vertex="1" parent="8WXEVEu52d8ca_O_jeVY-85">
          <mxGeometry x="240" width="60" height="40" as="geometry">
            <mxRectangle width="60" height="40" as="alternateBounds" />
          </mxGeometry>
        </mxCell>
        <mxCell id="8WXEVEu52d8ca_O_jeVY-100" value="INF" style="shape=partialRectangle;html=1;whiteSpace=wrap;connectable=0;fillColor=none;top=0;left=0;bottom=0;right=0;overflow=hidden;labelBackgroundColor=none;labelBorderColor=none;fontSize=17;fontColor=default;strokeColor=default;" vertex="1" parent="8WXEVEu52d8ca_O_jeVY-85">
          <mxGeometry x="300" width="60" height="40" as="geometry">
            <mxRectangle width="60" height="40" as="alternateBounds" />
          </mxGeometry>
        </mxCell>
        <mxCell id="8WXEVEu52d8ca_O_jeVY-89" value="" style="shape=tableRow;horizontal=0;startSize=0;swimlaneHead=0;swimlaneBody=0;top=0;left=0;bottom=0;right=0;collapsible=0;dropTarget=0;fillColor=none;points=[[0,0.5],[1,0.5]];portConstraint=eastwest;labelBackgroundColor=none;labelBorderColor=none;fontSize=17;fontColor=default;strokeColor=default;" vertex="1" parent="8WXEVEu52d8ca_O_jeVY-80">
          <mxGeometry y="80" width="360" height="40" as="geometry" />
        </mxCell>
        <mxCell id="8WXEVEu52d8ca_O_jeVY-90" value="pare[V]" style="shape=partialRectangle;html=1;whiteSpace=wrap;connectable=0;fillColor=none;top=0;left=0;bottom=0;right=0;overflow=hidden;labelBackgroundColor=none;labelBorderColor=none;fontSize=17;fontColor=default;strokeColor=default;" vertex="1" parent="8WXEVEu52d8ca_O_jeVY-89">
          <mxGeometry width="60" height="40" as="geometry">
            <mxRectangle width="60" height="40" as="alternateBounds" />
          </mxGeometry>
        </mxCell>
        <mxCell id="8WXEVEu52d8ca_O_jeVY-91" value="-1" style="shape=partialRectangle;html=1;whiteSpace=wrap;connectable=0;fillColor=none;top=0;left=0;bottom=0;right=0;overflow=hidden;labelBackgroundColor=none;labelBorderColor=none;fontSize=17;fontColor=default;strokeColor=default;" vertex="1" parent="8WXEVEu52d8ca_O_jeVY-89">
          <mxGeometry x="60" width="60" height="40" as="geometry">
            <mxRectangle width="60" height="40" as="alternateBounds" />
          </mxGeometry>
        </mxCell>
        <mxCell id="8WXEVEu52d8ca_O_jeVY-92" value="NIL" style="shape=partialRectangle;html=1;whiteSpace=wrap;connectable=0;fillColor=none;top=0;left=0;bottom=0;right=0;overflow=hidden;pointerEvents=1;labelBackgroundColor=none;labelBorderColor=none;fontSize=17;fontColor=default;strokeColor=default;" vertex="1" parent="8WXEVEu52d8ca_O_jeVY-89">
          <mxGeometry x="120" width="60" height="40" as="geometry">
            <mxRectangle width="60" height="40" as="alternateBounds" />
          </mxGeometry>
        </mxCell>
        <mxCell id="8WXEVEu52d8ca_O_jeVY-95" value="NIL" style="shape=partialRectangle;html=1;whiteSpace=wrap;connectable=0;fillColor=none;top=0;left=0;bottom=0;right=0;overflow=hidden;pointerEvents=1;labelBackgroundColor=none;labelBorderColor=none;fontSize=17;fontColor=default;strokeColor=default;" vertex="1" parent="8WXEVEu52d8ca_O_jeVY-89">
          <mxGeometry x="180" width="60" height="40" as="geometry">
            <mxRectangle width="60" height="40" as="alternateBounds" />
          </mxGeometry>
        </mxCell>
        <mxCell id="8WXEVEu52d8ca_O_jeVY-98" value="NIL" style="shape=partialRectangle;html=1;whiteSpace=wrap;connectable=0;fillColor=none;top=0;left=0;bottom=0;right=0;overflow=hidden;pointerEvents=1;labelBackgroundColor=none;labelBorderColor=none;fontSize=17;fontColor=default;strokeColor=default;" vertex="1" parent="8WXEVEu52d8ca_O_jeVY-89">
          <mxGeometry x="240" width="60" height="40" as="geometry">
            <mxRectangle width="60" height="40" as="alternateBounds" />
          </mxGeometry>
        </mxCell>
        <mxCell id="8WXEVEu52d8ca_O_jeVY-101" value="NIL" style="shape=partialRectangle;html=1;whiteSpace=wrap;connectable=0;fillColor=none;top=0;left=0;bottom=0;right=0;overflow=hidden;pointerEvents=1;labelBackgroundColor=none;labelBorderColor=none;fontSize=17;fontColor=default;strokeColor=default;" vertex="1" parent="8WXEVEu52d8ca_O_jeVY-89">
          <mxGeometry x="300" width="60" height="40" as="geometry">
            <mxRectangle width="60" height="40" as="alternateBounds" />
          </mxGeometry>
        </mxCell>
        <mxCell id="8WXEVEu52d8ca_O_jeVY-102" style="shape=tableRow;horizontal=0;startSize=0;swimlaneHead=0;swimlaneBody=0;top=0;left=0;bottom=0;right=0;collapsible=0;dropTarget=0;fillColor=none;points=[[0,0.5],[1,0.5]];portConstraint=eastwest;labelBackgroundColor=none;labelBorderColor=none;fontSize=17;fontColor=default;strokeColor=default;" vertex="1" parent="8WXEVEu52d8ca_O_jeVY-80">
          <mxGeometry y="120" width="360" height="40" as="geometry" />
        </mxCell>
        <mxCell id="8WXEVEu52d8ca_O_jeVY-103" value="mark[V]" style="shape=partialRectangle;html=1;whiteSpace=wrap;connectable=0;fillColor=none;top=0;left=0;bottom=0;right=0;overflow=hidden;labelBackgroundColor=none;labelBorderColor=none;fontSize=17;fontColor=default;strokeColor=default;" vertex="1" parent="8WXEVEu52d8ca_O_jeVY-102">
          <mxGeometry width="60" height="40" as="geometry">
            <mxRectangle width="60" height="40" as="alternateBounds" />
          </mxGeometry>
        </mxCell>
        <mxCell id="8WXEVEu52d8ca_O_jeVY-104" value="0" style="shape=partialRectangle;html=1;whiteSpace=wrap;connectable=0;fillColor=none;top=0;left=0;bottom=0;right=0;overflow=hidden;labelBackgroundColor=none;labelBorderColor=none;fontSize=17;fontColor=default;strokeColor=default;" vertex="1" parent="8WXEVEu52d8ca_O_jeVY-102">
          <mxGeometry x="60" width="60" height="40" as="geometry">
            <mxRectangle width="60" height="40" as="alternateBounds" />
          </mxGeometry>
        </mxCell>
        <mxCell id="8WXEVEu52d8ca_O_jeVY-105" value="0" style="shape=partialRectangle;html=1;whiteSpace=wrap;connectable=0;fillColor=none;top=0;left=0;bottom=0;right=0;overflow=hidden;pointerEvents=1;labelBackgroundColor=none;labelBorderColor=none;fontSize=17;fontColor=default;strokeColor=default;" vertex="1" parent="8WXEVEu52d8ca_O_jeVY-102">
          <mxGeometry x="120" width="60" height="40" as="geometry">
            <mxRectangle width="60" height="40" as="alternateBounds" />
          </mxGeometry>
        </mxCell>
        <mxCell id="8WXEVEu52d8ca_O_jeVY-106" value="0" style="shape=partialRectangle;html=1;whiteSpace=wrap;connectable=0;fillColor=none;top=0;left=0;bottom=0;right=0;overflow=hidden;pointerEvents=1;labelBackgroundColor=none;labelBorderColor=none;fontSize=17;fontColor=default;strokeColor=default;" vertex="1" parent="8WXEVEu52d8ca_O_jeVY-102">
          <mxGeometry x="180" width="60" height="40" as="geometry">
            <mxRectangle width="60" height="40" as="alternateBounds" />
          </mxGeometry>
        </mxCell>
        <mxCell id="8WXEVEu52d8ca_O_jeVY-107" value="0" style="shape=partialRectangle;html=1;whiteSpace=wrap;connectable=0;fillColor=none;top=0;left=0;bottom=0;right=0;overflow=hidden;pointerEvents=1;labelBackgroundColor=none;labelBorderColor=none;fontSize=17;fontColor=default;strokeColor=default;" vertex="1" parent="8WXEVEu52d8ca_O_jeVY-102">
          <mxGeometry x="240" width="60" height="40" as="geometry">
            <mxRectangle width="60" height="40" as="alternateBounds" />
          </mxGeometry>
        </mxCell>
        <mxCell id="8WXEVEu52d8ca_O_jeVY-108" value="0" style="shape=partialRectangle;html=1;whiteSpace=wrap;connectable=0;fillColor=none;top=0;left=0;bottom=0;right=0;overflow=hidden;pointerEvents=1;labelBackgroundColor=none;labelBorderColor=none;fontSize=17;fontColor=default;strokeColor=default;" vertex="1" parent="8WXEVEu52d8ca_O_jeVY-102">
          <mxGeometry x="300" width="60" height="40" as="geometry">
            <mxRectangle width="60" height="40" as="alternateBounds" />
          </mxGeometry>
        </mxCell>
      </root>
    </mxGraphModel>
  </diagram>
</mxfile>
